<svg xmlns="http://www.w3.org/2000/svg" width="170" height="109" viewBox="0 0 170 109"><defs><style>.a{opacity:0.65;}.b,.c{fill:#5d5b59;}.c{stroke:rgba(0,0,0,0);stroke-miterlimit:10;}.d,.h{fill:none;}.d{stroke:#d8d8d8;}.e{fill:#d4d4d4;}.f{fill:#403e3e;}.g{stroke:none;}</style></defs><g transform="translate(-214 -884)"><g transform="translate(266.878 908)"><g class="a" transform="translate(7.122 6)"><path class="b" d="M43.962,398.307q-10.819,0-21.639,0c-2.579,0-3.709-1.077-3.716-3.628q-.03-12.245,0-24.49c.007-2.474,1.1-3.532,3.618-3.535q21.723-.018,43.445,0c2.477,0,3.547,1.084,3.554,3.6q.033,12.245,0,24.49c-.007,2.446-1.167,3.554-3.624,3.557Q54.782,398.318,43.962,398.307Zm-.1-2.674c6.992,0,13.985-.031,20.977.027,1.335.011,1.861-.286,1.848-1.744q-.1-11.494-.005-22.99c.009-1.337-.425-1.723-1.737-1.72q-20.976.058-41.953,0c-1.352,0-1.854.353-1.842,1.785q.092,11.494,0,22.99c-.01,1.35.437,1.69,1.735,1.679C29.877,395.6,36.87,395.632,43.862,395.632Z" transform="translate(-18.592 -366.642)"/><path class="b" d="M101.771,396.264c-2.286,0-21.573.01-23.859,0-.946-.006-1.89-.153-1.85-1.391.036-1.142.931-1.216,1.816-1.216,4.629,0,26.257,0,30.886,0,.894,0,1.734.085,1.75,1.265s-.836,1.33-1.716,1.338C106.456,396.279,104.114,396.264,101.771,396.264Z" transform="translate(-68.056 -386.108)"/><path class="b" d="M101.771,396.264c-2.286,0-21.573.01-23.859,0-.946-.006-1.89-.153-1.85-1.391.036-1.142.931-1.216,1.816-1.216,4.629,0,26.257,0,30.886,0,.894,0,1.734.085,1.75,1.265s-.836,1.33-1.716,1.338C106.456,396.279,104.114,396.264,101.771,396.264Z" transform="translate(-68.056 -379.127)"/><path class="b" d="M94.832,409.85c2.344,0,2.687.01,5.031-.005.971-.006,1.687.3,1.656,1.39-.028,1-.759,1.276-1.623,1.277-4.687.005-.375,0-5.062,0-.925,0-1.746-.248-1.748-1.335,0-1.064.75-1.348,1.716-1.338C97.144,409.867,92.488,409.85,94.832,409.85Z" transform="translate(-85.086 -388.336)"/><path class="b" d="M94.832,409.85c2.344,0,2.687.01,5.031-.005.971-.006,1.687.3,1.656,1.39-.028,1-.759,1.276-1.623,1.277-4.687.005-.375,0-5.062,0-.925,0-1.746-.248-1.748-1.335,0-1.064.75-1.348,1.716-1.338C97.144,409.867,92.488,409.85,94.832,409.85Z" transform="translate(-72.086 -388.336)"/><path class="b" d="M94.832,409.85c2.344,0,2.687.01,5.031-.005.971-.006,1.687.3,1.656,1.39-.028,1-.759,1.276-1.623,1.277-4.687.005-.375,0-5.062,0-.925,0-1.746-.248-1.748-1.335,0-1.064.75-1.348,1.716-1.338C97.144,409.867,92.488,409.85,94.832,409.85Z" transform="translate(-59.086 -388.336)"/></g><path class="c" d="M12039.535,11599.51a3.646,3.646,0,0,1,3.739-3.948,3.334,3.334,0,0,1,3.542,2.59h-1.373a2.087,2.087,0,0,0-2.169-1.51c-1.4,0-2.436.992-2.436,2.868,0,1.905,1.034,2.9,2.436,2.9a2.055,2.055,0,0,0,2.169-1.513h1.373a3.41,3.41,0,0,1-3.542,2.589A3.653,3.653,0,0,1,12039.535,11599.51Zm-9.463-.013a3.636,3.636,0,0,1,3.639-3.936,3.185,3.185,0,0,1,2.856,1.528v-1.4h1.288v7.672h-1.288v-1.428a3.2,3.2,0,0,1-2.868,1.552A3.689,3.689,0,0,1,12030.072,11599.5Zm1.3,0a2.607,2.607,0,1,0,2.592-2.828A2.592,2.592,0,0,0,12031.373,11599.5Zm-18.981,3a3.709,3.709,0,0,1,0-4.811,2.8,2.8,0,0,1,2.143-.989,2.745,2.745,0,0,1,1.282.3,2.23,2.23,0,0,1,.89.792h.052l-.052-.883v-2.937h1.2v9.309h-1.144v-.884h-.052a2.254,2.254,0,0,1-.89.793,2.754,2.754,0,0,1-1.282.3A2.793,2.793,0,0,1,12012.392,11602.5Zm.9-4.058a2.38,2.38,0,0,0-.584,1.652,2.353,2.353,0,0,0,.584,1.651,1.87,1.87,0,0,0,1.443.65,1.837,1.837,0,0,0,1.443-.638,2.646,2.646,0,0,0,0-3.316,1.843,1.843,0,0,0-1.443-.65A1.87,1.87,0,0,0,12013.287,11598.441Zm-12.915,4.42a1.987,1.987,0,0,1-.707-1.558,1.887,1.887,0,0,1,.747-1.573,3.135,3.135,0,0,1,1.993-.587,3.535,3.535,0,0,1,1.758.391v-.272a1.36,1.36,0,0,0-.5-1.059,1.69,1.69,0,0,0-1.155-.437,1.83,1.83,0,0,0-1.586.845l-1.053-.663a3.34,3.34,0,0,1,4.665-.538,2.512,2.512,0,0,1,.769,1.942v3.927h-1.144v-.884h-.055a2.28,2.28,0,0,1-1.976,1.089A2.559,2.559,0,0,1,12000.372,11602.861Zm1.014-2.405a1.052,1.052,0,0,0-.487.872.962.962,0,0,0,.4.78,1.453,1.453,0,0,0,.929.312,1.9,1.9,0,0,0,1.347-.56,1.754,1.754,0,0,0,.593-1.313,2.478,2.478,0,0,0-1.561-.441A2.035,2.035,0,0,0,12001.386,11600.456Zm-9.887,1.641a5.053,5.053,0,0,1,0-6.932,4.653,4.653,0,0,1,3.458-1.4,4.3,4.3,0,0,1,3.419,1.521l-.856.832a3.184,3.184,0,0,0-2.562-1.21,3.512,3.512,0,0,0-2.586,1.04,4.01,4.01,0,0,0,0,5.358,3.513,3.513,0,0,0,2.586,1.041,3.636,3.636,0,0,0,2.819-1.368l.872.845a4.486,4.486,0,0,1-1.625,1.23,4.979,4.979,0,0,1-2.066.433A4.707,4.707,0,0,1,11991.5,11602.1Zm61.3,1.264-3.011-3.388v3.388h-1.273V11593h1.273v6.093l2.953-3.4h1.779l-3.612,3.821,3.627,3.851Zm-30.828,0v-9.759h3.5c2.057,0,3.092,1.122,3.092,2.478a2.278,2.278,0,0,1-1.707,2.254,2.438,2.438,0,0,1,1.931,2.408c0,1.47-1.162,2.619-3.177,2.619Zm1.273-1.05h2.254c1.259,0,2.016-.629,2.016-1.693,0-1.08-.812-1.752-2.058-1.752h-2.212Zm0-4.5h2.143c1.188,0,1.875-.587,1.875-1.582,0-.965-.656-1.582-1.9-1.582h-2.115Zm-16.14,5.464v-6.371h1.144v1.04h.052a1.721,1.721,0,0,1,.747-.865,2.074,2.074,0,0,1,1.11-.356,2.27,2.27,0,0,1,.887.154l-.366,1.158a1.98,1.98,0,0,0-.7-.091,1.553,1.553,0,0,0-1.177.545,1.834,1.834,0,0,0-.5,1.276v3.51Z" transform="translate(-11990.001 -11542.278)"/></g><g class="d" transform="translate(214 884)"><rect class="g" width="170" height="109" rx="12"/><rect class="h" x="0.5" y="0.5" width="169" height="108" rx="11.5"/></g><g transform="translate(360 885)"><path class="e" d="M0,0H12A11,11,0,0,1,23,11V23a0,0,0,0,1,0,0H8a8,8,0,0,1-8-8V0A0,0,0,0,1,0,0Z"/><g transform="translate(6.405 7.085)"><g transform="translate(0 0)"><path class="f" d="M9.791,38.3a1.309,1.309,0,0,0-.96-.4H7.642l-.271-.722A.986.986,0,0,0,7,36.728a.945.945,0,0,0-.549-.188H3.736a.945.945,0,0,0-.549.188.986.986,0,0,0-.369.448l-.271.722H1.359a1.309,1.309,0,0,0-.961.4,1.309,1.309,0,0,0-.4.961v4.755a1.309,1.309,0,0,0,.4.96,1.309,1.309,0,0,0,.961.4H8.83a1.359,1.359,0,0,0,1.358-1.359V39.257A1.309,1.309,0,0,0,9.791,38.3ZM6.774,43.314a2.29,2.29,0,0,1-1.68.7,2.29,2.29,0,0,1-1.68-.7,2.37,2.37,0,0,1,0-3.359,2.289,2.289,0,0,1,1.68-.7,2.29,2.29,0,0,1,1.68.7,2.37,2.37,0,0,1,0,3.359Z" transform="translate(0 -36.54)"/><path class="f" d="M193.384,228.4a1.531,1.531,0,1,0,1.08.448A1.472,1.472,0,0,0,193.384,228.4Z" transform="translate(-188.29 -224.837)"/></g></g></g></g></svg>