<svg xmlns="http://www.w3.org/2000/svg" width="36.252" height="36.252" viewBox="0 0 36.252 36.252"><defs><style>.a{fill:#595959;stroke:#707070;}.b{fill:#fff;}.c{stroke:none;}.d{fill:none;}</style></defs><g transform="translate(-172.5 -739.946)"><g transform="translate(172.5 739.946)"><g class="a" transform="translate(1.125 1.126)"><rect class="c" width="34" height="34" rx="4"/><rect class="d" x="0.5" y="0.5" width="33" height="33" rx="3.5"/></g><path class="b" d="M34.836,31.627a1.416,1.416,0,0,0,1.416-1.416V5.664A5.671,5.671,0,0,0,30.588,0H5.664A5.671,5.671,0,0,0,0,5.664V30.588a5.671,5.671,0,0,0,5.664,5.664H30.588a5.671,5.671,0,0,0,5.664-5.664,1.416,1.416,0,1,0-2.832,0,2.835,2.835,0,0,1-2.832,2.832H5.664a2.835,2.835,0,0,1-2.832-2.832V5.664A2.835,2.835,0,0,1,5.664,2.832H30.588A2.835,2.835,0,0,1,33.42,5.664V30.211A1.416,1.416,0,0,0,34.836,31.627Z" transform="translate(36.252 36.252) rotate(180)"/></g><path class="b" d="M7.789,17.064V10.69H1.416a1.416,1.416,0,0,1,0-2.832H7.789V1.416a1.416,1.416,0,0,1,2.832,0V7.858h6.372a1.416,1.416,0,0,1,0,2.832H10.621v6.374a1.416,1.416,0,1,1-2.832,0Z" transform="translate(190.523 771.15) rotate(-135)"/></g></svg>