<svg xmlns="http://www.w3.org/2000/svg" width="10.334" height="12.201" viewBox="0 0 10.334 12.201"><defs><style>.a{fill:#e1932e;stroke:#eb9e3b;}</style></defs><path class="a" d="M51.534,10.267H50.6v-1.8a2.332,2.332,0,0,0-1.039-1.942L48.175,5.6l1.387-.925A2.332,2.332,0,0,0,50.6,2.734V.933h.933a.467.467,0,0,0,0-.933h-8.4a.467.467,0,0,0,0,.933h.933v1.8a2.332,2.332,0,0,0,1.039,1.942l1.386.924-1.387.925a2.332,2.332,0,0,0-1.039,1.941v1.8h-.933a.467.467,0,0,0,0,.933h8.4a.467.467,0,0,0,0-.933ZM45,2.734V.933h4.667v1.8A1.4,1.4,0,0,1,49.044,3.9l-1.71,1.14L45.624,3.9A1.4,1.4,0,0,1,45,2.734Zm0,7.533v-1.8A1.4,1.4,0,0,1,45.624,7.3l1.71-1.14,1.71,1.14a1.4,1.4,0,0,1,.623,1.165v1.8Z" transform="translate(-42.167 0.5)"/></svg>