<svg xmlns="http://www.w3.org/2000/svg" width="109" height="109" viewBox="0 0 109 109"><defs><style>.a,.b{fill:#5d5b59;}.b{opacity:0.65;}.c,.g{fill:none;}.c{stroke:#d8d8d8;}.d{fill:#d4d4d4;}.e{fill:#403e3e;}.f{stroke:none;}</style></defs><g transform="translate(-153 -707)"><g transform="translate(123 158)"><path class="a" d="M.6-4.886A4.787,4.787,0,0,0,5.474.084,4.589,4.589,0,0,0,10-2.842H8.47a3.079,3.079,0,0,1-3,1.82A3.539,3.539,0,0,1,1.9-4.886a3.544,3.544,0,0,1,3.57-3.878,3.07,3.07,0,0,1,3,1.834H10A4.593,4.593,0,0,0,5.474-9.884,4.811,4.811,0,0,0,.6-4.886ZM11.41-3.864A3.69,3.69,0,0,0,15.036.126a3.2,3.2,0,0,0,2.87-1.554V0h1.288V-7.672H17.906v1.4A3.184,3.184,0,0,0,15.05-7.8,3.636,3.636,0,0,0,11.41-3.864Zm6.5.014A2.625,2.625,0,0,1,15.3-.994a2.627,2.627,0,0,1-2.59-2.87A2.59,2.59,0,0,1,15.3-6.692,2.629,2.629,0,0,1,17.906-3.85Zm4.718-.322c0-1.778.924-2.324,2.142-2.324H25.1V-7.812a2.584,2.584,0,0,0-2.478,1.386V-7.672H21.35V0h1.274Zm13.23,1.428c0,1.064-.756,1.694-2.016,1.694H31.584V-4.494H33.8C35.042-4.494,35.854-3.822,35.854-2.744ZM35.6-7.126c0,.994-.686,1.582-1.876,1.582H31.584V-8.708H33.7C34.944-8.708,35.6-8.092,35.6-7.126Zm1.526,4.508A2.436,2.436,0,0,0,35.2-5.026,2.283,2.283,0,0,0,36.9-7.28c0-1.358-1.036-2.478-3.094-2.478h-3.5V0h3.64C35.966,0,37.128-1.148,37.128-2.618Zm1.288-1.246A3.69,3.69,0,0,0,42.042.126a3.2,3.2,0,0,0,2.87-1.554V0H46.2V-7.672H44.912v1.4A3.184,3.184,0,0,0,42.056-7.8,3.636,3.636,0,0,0,38.416-3.864Zm6.5.014a2.625,2.625,0,0,1-2.6,2.856,2.627,2.627,0,0,1-2.59-2.87,2.59,2.59,0,0,1,2.59-2.828A2.629,2.629,0,0,1,44.912-3.85Zm2.968,0A3.654,3.654,0,0,0,51.618.126a3.413,3.413,0,0,0,3.542-2.59H53.788a2.058,2.058,0,0,1-2.17,1.512c-1.4,0-2.436-.994-2.436-2.9,0-1.876,1.036-2.87,2.436-2.87a2.09,2.09,0,0,1,2.17,1.512H55.16A3.334,3.334,0,0,0,51.618-7.8,3.645,3.645,0,0,0,47.88-3.85ZM56.854,0h1.274V-3.388L61.138,0h1.736L59.248-3.85,62.86-7.672H61.082l-2.954,3.4v-6.09H56.854Z" transform="translate(52 632)"/><path class="b" d="M265.69,245.273c-.185-1.607.769-1.88,1.908-1.9a16.752,16.752,0,0,1,2.251.108c1.65.193,1.615,1.549,1.67,2.692.057,1.19-.918,1.282-1.813,1.3-.842.022-1.686,0-2.779,0,1.745,2.892,1.64,5.874,1.446,8.8-.309,4.675-.214,9.348-.207,14.022,0,1.223-.322,1.748-1.634,1.711-4.692-.131-3.882.645-3.958-3.874a3.5,3.5,0,0,0-3.71-3.607c-8.869,0-17.74.053-26.608-.041-2.043-.022-3.513,1.592-5.53,1.5-.52-.025-.393.674-.4,1.075-.024,1.236-.031,2.473-.011,3.709.021,1.325-.938,1.41-1.765,1.181-1.278-.353-3.7,1.172-3.724-1.063-.078-6.549-.528-13.1-.194-19.656a9.071,9.071,0,0,1,1.322-3.758c-1.11,0-1.986.023-2.86-.007-.832-.028-1.737-.124-1.713-1.233s-.078-2.39,1.422-2.707a11.555,11.555,0,0,1,2.245-.167c1.229-.014,2.313.19,1.978,1.878.712-.079.659-.637.837-.969,1.446-2.694,2.906-5.383,4.257-8.125a3.919,3.919,0,0,1,3.38-2.329,104.215,104.215,0,0,1,10.779-.573,114.426,114.426,0,0,1,15.447.652,3.6,3.6,0,0,1,2.886,2.01C262.319,238.989,263.982,242.089,265.69,245.273Zm-21.273-2.231a128.481,128.481,0,0,1,15.934.546c.484.059,1.32.235,1.142-.6a14.441,14.441,0,0,0-2.271-5.289c-.7-.983-2.174-.742-3.319-.793a190.032,190.032,0,0,0-21.263-.083c-5.988.4-4.6-.319-7.042,5.334-.021.049-.041.1-.06.149-.417,1.109-.018,1.454,1.114,1.3C233.887,242.894,239.156,243.058,244.418,243.042Zm-15.665,5.817c-.566,0-1.588.01-2.609,0a1.39,1.39,0,0,0-1.62,1.386,13.4,13.4,0,0,1-.3,1.745c-.206.878.137,1.127,1,1.361,3,.81,5.86-.421,8.8-.416.712,0,.9-.536.667-1.285-.651-2.067-1.19-2.534-3.387-2.668C230.607,248.936,229.907,248.913,228.752,248.859Zm31.347,0c-.994.046-1.8.075-2.6.123-2.082.124-2.785.751-3.33,2.73-.22.8.09,1.165.772,1.244,2.237.258,4.479.608,6.723.644,3.017.049,3.365-.559,2.683-3.435a1.472,1.472,0,0,0-1.69-1.311C261.738,248.879,260.824,248.864,260.1,248.864Zm-13.815,2.879a1.844,1.844,0,1,0-3.681.11,1.724,1.724,0,0,0,1.9,1.753A1.767,1.767,0,0,0,246.284,251.743Z" transform="translate(-161.383 339.76)"/></g><g class="c" transform="translate(153 707)"><rect class="f" width="109" height="109" rx="12"/><rect class="g" x="0.5" y="0.5" width="108" height="108" rx="11.5"/></g><g transform="translate(-95.975 161.025)"><path class="d" d="M0,0H12A11,11,0,0,1,23,11V23a0,0,0,0,1,0,0H8a8,8,0,0,1-8-8V0A0,0,0,0,1,0,0Z" transform="translate(333.975 546.975)"/><g transform="translate(340.38 554.059)"><g transform="translate(0 0)"><path class="e" d="M9.791,38.3a1.309,1.309,0,0,0-.96-.4H7.642l-.271-.722A.986.986,0,0,0,7,36.728a.945.945,0,0,0-.549-.188H3.736a.945.945,0,0,0-.549.188.986.986,0,0,0-.369.448l-.271.722H1.359a1.309,1.309,0,0,0-.961.4,1.309,1.309,0,0,0-.4.961v4.755a1.309,1.309,0,0,0,.4.96,1.309,1.309,0,0,0,.961.4H8.83a1.359,1.359,0,0,0,1.358-1.359V39.257A1.309,1.309,0,0,0,9.791,38.3ZM6.774,43.314a2.29,2.29,0,0,1-1.68.7,2.29,2.29,0,0,1-1.68-.7,2.37,2.37,0,0,1,0-3.359,2.289,2.289,0,0,1,1.68-.7,2.29,2.29,0,0,1,1.68.7,2.37,2.37,0,0,1,0,3.359Z" transform="translate(0 -36.54)"/><path class="e" d="M193.384,228.4a1.531,1.531,0,1,0,1.08.448A1.472,1.472,0,0,0,193.384,228.4Z" transform="translate(-188.29 -224.837)"/></g></g></g></g></svg>