<svg xmlns="http://www.w3.org/2000/svg" width="83.808" height="56.874" viewBox="0 0 83.808 56.874"><defs><style>.a{fill:#c1c1c1;font-size:14px;font-family:Poppins-Regular, Poppins;}.b{fill:#d4d5d4;stroke:rgba(0,0,0,0);stroke-miterlimit:10;}</style></defs><g transform="translate(-44.598 -580.126)"><text class="a" transform="translate(52 632)"><tspan x="0" y="0">Car Side</tspan></text><g transform="translate(-252.561 342.778)"><path class="b" d="M66.068,25.875a5.484,5.484,0,0,1-5.441-5.613,5.555,5.555,0,0,1,5.185-5.553,5.671,5.671,0,0,1,5.963,5.652,5.6,5.6,0,0,1-5.617,5.514Zm.065-8.3a2.713,2.713,0,0,0-2.7,2.756A2.684,2.684,0,0,0,66.27,23.05a2.738,2.738,0,0,0-.091-5.475ZM13.482,20.418a5.574,5.574,0,1,1,11.148-.083A5.522,5.522,0,0,1,19.1,25.869h-.031A5.523,5.523,0,0,1,13.482,20.418ZM19,17.573a2.771,2.771,0,1,0,.06,0Zm37.47,4.548c-9.876-.079-19.751-.175-29.627-.229-.8,0-1.011-.224-1.078-1.023-.19-2.243-.783-4.358-2.682-5.827a6.148,6.148,0,0,0-6.345-.945,6.236,6.236,0,0,0-4,5.149c-.121.75.223,1.834-.377,2.166-.537.3-1.482-.125-2.243-.253-2.25-.375-4.5-.761-6.747-1.143a3.8,3.8,0,0,1-2.106-1.141A1.808,1.808,0,0,1,.6,17.149a3.627,3.627,0,0,0-.426-1.887,1.7,1.7,0,0,1,.468-2.073,2.271,2.271,0,0,0,.8-1.594c.1-1.583.931-3.023.922-4.645,0-.58.607-.508,1-.532,1.816-.113,3.634-.2,5.452-.291a4.566,4.566,0,0,0,1.556-.411c4.707-1.968,9.4-4.049,14.474-4.854a60.393,60.393,0,0,1,24.432.819,30.776,30.776,0,0,1,8.746,3.947A19.087,19.087,0,0,0,66,8.4,61.4,61.4,0,0,1,77.039,11a12.9,12.9,0,0,1,3.992,2.234,4.9,4.9,0,0,1,1.656,4.915c-.47,2.626-.413,2.622-3.122,3.019-1.61.237-3.226.388-4.76.463-.246,0-.4,0-.555,0-1.634.028-1.658.028-1.694-1.6a6.434,6.434,0,0,0-12.821-.714c-.156.925.227,2.2-.536,2.689a1.865,1.865,0,0,1-1.011.227C57.637,22.231,57.018,22.125,56.471,22.121Zm17.92-8.411c-.009.631.155,1.245.971,1.331,1.748.184,3.5.374,5.273.564-.06-.449-.42-.643-.639-.939-1.148-1.548-2.853-1.436-4.487-1.534-.162-.009-.34-.035-.506-.035C74.677,13.1,74.4,13.2,74.392,13.71ZM3.232,9.773c-.641.068-1.367,2.274-.992,2.789.164.226.386.214.713.194.5-.252,1.358.056,1.738-.477.469-.661,1.118-1.6.773-2.293a.806.806,0,0,0-.8-.444A14.474,14.474,0,0,0,3.232,9.773ZM39.938,3.286a39.1,39.1,0,0,1,1.14,4.486c.158.835.523,1.014,1.3,1.048,4.084.179,8.162.426,12.245.639.287.015.63.163.842-.181a4.158,4.158,0,0,0-.9-2.955A26.173,26.173,0,0,0,41.442,2.3a3.893,3.893,0,0,1-.578-.049,2.463,2.463,0,0,0-.541-.076C39.807,2.17,39.69,2.495,39.938,3.286Zm-5.61,4.789V8.32c.967.055,1.935.084,2.9.171.57.051.8-.17.754-.714-.134-1.659-.277-3.317-.4-4.978-.039-.515-.258-.715-.8-.721a54.659,54.659,0,0,0-9.482.739c-.588.1-.878.328-.812.986.118,1.154.183,2.316.232,3.477.03.694.443.8,1.008.8q1.542-.006,3.084-.005Zm-9.3-.084c1.106.269,1.357-.228,1.224-1.233s-.174-2-.209-3.01c-.018-.495-.236-.6-.652-.486A13.674,13.674,0,0,0,22.13,4.417c-.719.408-.835.922-.58,1.746C22,7.615,22.8,8.3,24.093,7.939A6.177,6.177,0,0,1,25.033,7.991Z" transform="translate(297.664 237.846)"/></g></g></svg>