<svg xmlns="http://www.w3.org/2000/svg" width="170" height="109" viewBox="0 0 170 109"><defs><style>.a{opacity:0.65;}.b{fill:#5d5b59;}.c,.g{fill:none;}.c{stroke:#d8d8d8;}.d{fill:#d4d4d4;}.e{fill:#403e3e;}.f{stroke:none;}</style></defs><g transform="translate(-30 -884)"><g transform="translate(80 913)"><g class="a" transform="translate(10.001)"><path class="b" d="M43.962,398.307q-10.819,0-21.639,0c-2.579,0-3.709-1.077-3.716-3.628q-.03-12.245,0-24.49c.007-2.474,1.1-3.532,3.618-3.535q21.723-.018,43.445,0c2.477,0,3.547,1.084,3.554,3.6q.033,12.245,0,24.49c-.007,2.446-1.167,3.554-3.624,3.557Q54.782,398.318,43.962,398.307Zm-.1-2.674c6.992,0,13.985-.031,20.977.027,1.335.011,1.861-.286,1.848-1.744q-.1-11.494-.005-22.99c.009-1.337-.425-1.723-1.737-1.72q-20.976.058-41.953,0c-1.352,0-1.854.353-1.842,1.785q.092,11.494,0,22.99c-.01,1.35.437,1.69,1.735,1.679C29.877,395.6,36.87,395.632,43.862,395.632Z" transform="translate(-18.592 -366.642)"/><path class="b" d="M42.277,421.576c-1.786,0-3.572.007-5.357-.005-.422,0-1,.113-1.023-.547-.079-2.833-.43-5.744,2.064-7.916.617-.537,1.095-.876,1.989-.274a4.218,4.218,0,0,0,4.879-.029,1.19,1.19,0,0,1,1.713.148c2.557,2.147,2.5,5.058,2.393,7.987-.029.76-.664.624-1.133.628C45.96,421.586,44.118,421.576,42.277,421.576Z" transform="translate(-30.045 -397.108)"/><path class="b" d="M47.148,397.173a4.057,4.057,0,0,1-4.109-3.957,4.209,4.209,0,0,1,4.061-4.062,4.016,4.016,0,0,1,4.019,4.019A3.833,3.833,0,0,1,47.148,397.173Z" transform="translate(-34.83 -381.595)"/><path class="b" d="M101.771,396.264c-2.286,0-4.573.01-6.859,0-.946-.006-1.89-.153-1.85-1.391.036-1.142.931-1.216,1.816-1.216q6.943,0,13.886,0c.894,0,1.734.085,1.75,1.265s-.836,1.33-1.716,1.338C106.456,396.279,104.114,396.264,101.771,396.264Z" transform="translate(-68.056 -384.583)"/><path class="b" d="M101.832,409.85c2.344,0,4.687.01,7.031-.005.971-.006,1.687.3,1.656,1.39-.028,1-.759,1.276-1.623,1.277q-7.031.008-14.062,0c-.925,0-1.746-.248-1.748-1.335,0-1.064.75-1.348,1.716-1.338C97.144,409.867,99.488,409.85,101.832,409.85Z" transform="translate(-68.072 -395.336)"/><path class="b" d="M101.739,428.645c-2.287,0-4.575-.015-6.862.007-.928.009-1.765-.164-1.791-1.255-.028-1.182.867-1.422,1.845-1.422q6.862,0,13.724,0c.951,0,1.883.164,1.862,1.387-.021,1.244-.965,1.292-1.917,1.285C106.313,428.634,104.026,428.645,101.739,428.645Z" transform="translate(-68.073 -406.051)"/></g></g><g transform="translate(30 884)"><g class="c"><rect class="f" width="170" height="109" rx="12"/><rect class="g" x="0.5" y="0.5" width="169" height="108" rx="11.5"/></g><g transform="translate(146 1)"><path class="d" d="M0,0H12A11,11,0,0,1,23,11V23a0,0,0,0,1,0,0H8a8,8,0,0,1-8-8V0A0,0,0,0,1,0,0Z"/><g transform="translate(6.405 7.085)"><g transform="translate(0 0)"><path class="e" d="M9.791,38.3a1.309,1.309,0,0,0-.96-.4H7.642l-.271-.722A.986.986,0,0,0,7,36.728a.945.945,0,0,0-.549-.188H3.736a.945.945,0,0,0-.549.188.986.986,0,0,0-.369.448l-.271.722H1.359a1.309,1.309,0,0,0-.961.4,1.309,1.309,0,0,0-.4.961v4.755a1.309,1.309,0,0,0,.4.96,1.309,1.309,0,0,0,.961.4H8.83a1.359,1.359,0,0,0,1.358-1.359V39.257A1.309,1.309,0,0,0,9.791,38.3ZM6.774,43.314a2.29,2.29,0,0,1-1.68.7,2.29,2.29,0,0,1-1.68-.7,2.37,2.37,0,0,1,0-3.359,2.289,2.289,0,0,1,1.68-.7,2.29,2.29,0,0,1,1.68.7,2.37,2.37,0,0,1,0,3.359Z" transform="translate(0 -36.54)"/><path class="e" d="M193.384,228.4a1.531,1.531,0,1,0,1.08.448A1.472,1.472,0,0,0,193.384,228.4Z" transform="translate(-188.29 -224.837)"/></g></g></g><path class="b" d="M5.317.208A4.694,4.694,0,0,1,1.859-1.183,4.733,4.733,0,0,1,.481-4.654,4.69,4.69,0,0,1,1.859-8.112a4.645,4.645,0,0,1,3.458-1.4A4.3,4.3,0,0,1,8.736-7.995l-.858.832A3.177,3.177,0,0,0,5.317-8.372,3.512,3.512,0,0,0,2.73-7.332,3.622,3.622,0,0,0,1.7-4.654,3.622,3.622,0,0,0,2.73-1.976,3.512,3.512,0,0,0,5.317-.936,3.642,3.642,0,0,0,8.138-2.3l.871.845A4.516,4.516,0,0,1,7.384-.228,4.953,4.953,0,0,1,5.317.208ZM11.258-1.95a.955.955,0,0,0,.4.78,1.459,1.459,0,0,0,.929.312,1.906,1.906,0,0,0,1.345-.559,1.751,1.751,0,0,0,.591-1.313,2.457,2.457,0,0,0-1.56-.442,2.027,2.027,0,0,0-1.215.351A1.042,1.042,0,0,0,11.258-1.95Zm1.547-4.628A2.965,2.965,0,0,1,14.9-5.87a2.515,2.515,0,0,1,.767,1.944V0H14.521V-.884h-.052A2.282,2.282,0,0,1,12.493.208a2.569,2.569,0,0,1-1.761-.624,1.993,1.993,0,0,1-.708-1.56,1.894,1.894,0,0,1,.747-1.573,3.15,3.15,0,0,1,2-.585,3.531,3.531,0,0,1,1.755.39v-.273a1.361,1.361,0,0,0-.494-1.059,1.694,1.694,0,0,0-1.157-.436,1.833,1.833,0,0,0-1.586.845L10.231-5.33A2.936,2.936,0,0,1,12.805-6.578ZM18.655,0h-1.2V-6.37H18.6v1.04h.052a1.726,1.726,0,0,1,.747-.865,2.075,2.075,0,0,1,1.111-.357A2.241,2.241,0,0,1,21.4-6.4l-.364,1.157a1.981,1.981,0,0,0-.7-.091,1.548,1.548,0,0,0-1.177.546,1.826,1.826,0,0,0-.5,1.274ZM25.09-.884a1.831,1.831,0,0,0,1.443-.637,2.363,2.363,0,0,0,.585-1.664,2.375,2.375,0,0,0-.585-1.651,1.84,1.84,0,0,0-1.443-.65,1.865,1.865,0,0,0-1.443.65,2.375,2.375,0,0,0-.585,1.651,2.345,2.345,0,0,0,.585,1.651A1.865,1.865,0,0,0,25.09-.884ZM24.9.208A2.8,2.8,0,0,1,22.75-.78a3.509,3.509,0,0,1-.884-2.4A3.509,3.509,0,0,1,22.75-5.59,2.8,2.8,0,0,1,24.9-6.578a2.747,2.747,0,0,1,1.281.3,2.241,2.241,0,0,1,.891.793h.052l-.052-.884V-9.308h1.2V0H27.118V-.884h-.052a2.24,2.24,0,0,1-.891.793A2.747,2.747,0,0,1,24.9.208Zm9.971-4.2V0h-1.2V-9.308H39.1v1.144H34.866v3.055h3.822v1.118ZM41.626,0h-1.2V-6.37h1.144v1.04h.052a1.726,1.726,0,0,1,.748-.865,2.074,2.074,0,0,1,1.111-.357,2.241,2.241,0,0,1,.884.156l-.364,1.157a1.981,1.981,0,0,0-.7-.091,1.548,1.548,0,0,0-1.177.546,1.826,1.826,0,0,0-.5,1.274Zm3.211-3.185a3.37,3.37,0,0,1,.923-2.431,3.146,3.146,0,0,1,2.353-.962,3.1,3.1,0,0,1,2.34.962,3.344,3.344,0,0,1,.936,2.431,3.316,3.316,0,0,1-.936,2.431,3.1,3.1,0,0,1-2.34.962A3.146,3.146,0,0,1,45.76-.754,3.37,3.37,0,0,1,44.837-3.185Zm1.2,0a2.333,2.333,0,0,0,.6,1.664,1.951,1.951,0,0,0,1.482.637A1.951,1.951,0,0,0,49.6-1.521a2.333,2.333,0,0,0,.6-1.664,2.315,2.315,0,0,0-.6-1.651,1.959,1.959,0,0,0-1.482-.65,1.959,1.959,0,0,0-1.482.65A2.315,2.315,0,0,0,46.033-3.185Zm6.76-3.185h1.144v.884h.052a2.127,2.127,0,0,1,.839-.78A2.4,2.4,0,0,1,56-6.578a2.354,2.354,0,0,1,1.8.67A2.672,2.672,0,0,1,58.435-4V0h-1.2V-3.926a1.406,1.406,0,0,0-1.573-1.56,1.5,1.5,0,0,0-1.2.578,2.1,2.1,0,0,0-.481,1.385V0h-1.2ZM62.478.1a1.818,1.818,0,0,1-1.293-.481,1.785,1.785,0,0,1-.527-1.339V-5.278H59.54V-6.37h1.118V-8.32h1.2v1.95h1.56v1.092h-1.56v3.172a1.163,1.163,0,0,0,.247.864.8.8,0,0,0,.559.228,1.2,1.2,0,0,0,.28-.033,1.45,1.45,0,0,0,.253-.084L63.57-.065A3.212,3.212,0,0,1,62.478.1Z" transform="translate(53 84)"/></g></g></svg>