<svg xmlns="http://www.w3.org/2000/svg" width="32.808" height="32.808" viewBox="0 0 32.808 32.808"><defs><style>.a{fill:#f08510;stroke:#f08510;stroke-width:0.7px;}</style></defs><path class="a" d="M14.869,22.952V17.307H9.225a1.254,1.254,0,0,1,0-2.508h5.644V9.093a1.254,1.254,0,0,1,2.508,0V14.8h5.644a1.254,1.254,0,0,1,0,2.508H17.378v5.645a1.254,1.254,0,1,1-2.508,0Zm15.985-2.941a1.254,1.254,0,0,0,1.254-1.254V5.017A5.023,5.023,0,0,0,27.091,0H5.017A5.023,5.023,0,0,0,0,5.017V27.091a5.023,5.023,0,0,0,5.017,5.017H27.091a5.023,5.023,0,0,0,5.017-5.017,1.254,1.254,0,1,0-2.508,0A2.511,2.511,0,0,1,27.091,29.6H5.017a2.511,2.511,0,0,1-2.508-2.508V5.017A2.511,2.511,0,0,1,5.017,2.508H27.091A2.511,2.511,0,0,1,29.6,5.017V18.758A1.254,1.254,0,0,0,30.854,20.012Z" transform="translate(32.458 32.458) rotate(180)"/></svg>