<svg xmlns="http://www.w3.org/2000/svg" width="25.248" height="25.248" viewBox="0 0 25.248 25.248"><defs><style>.a{fill:#474747;stroke:#474747;stroke-width:0.7px;}</style></defs><g transform="translate(0.35 0.35)"><path class="a" d="M13.233,6.616v5.26l3.491,3.491a.959.959,0,0,1-1.356,1.356L11.6,12.952a.959.959,0,0,1-.281-.678V6.616a.959.959,0,0,1,1.918,0ZM16.046,0H8.5A8.473,8.473,0,0,0,2.927,2.085V.959a.959.959,0,1,0-1.918,0V4.731a.961.961,0,0,0,.959.959H5.74a.959.959,0,0,0,0-1.918H3.926A6.607,6.607,0,0,1,8.5,1.918h7.543A6.592,6.592,0,0,1,22.63,8.5v7.543a6.592,6.592,0,0,1-6.585,6.585H8.5a6.592,6.592,0,0,1-6.585-6.585V12.274a.959.959,0,0,0-1.918,0v3.772a8.512,8.512,0,0,0,8.5,8.5h7.543a8.512,8.512,0,0,0,8.5-8.5V8.5A8.512,8.512,0,0,0,16.046,0Z"/></g></svg>