<svg xmlns="http://www.w3.org/2000/svg" width="25.775" height="24.806" viewBox="0 0 25.775 24.806"><defs><style>.a{fill:#484848;stroke:#484848;stroke-width:0.5px;}</style></defs><g transform="translate(-78.282 -743.715)"><g transform="translate(78.607 733.611)"><g transform="translate(0 10.492)"><path class="a" d="M24.914,21.612,14.658,11.287l-.041-.039a2.951,2.951,0,0,0-3.937-.008l-.041.038L.289,21.609A.984.984,0,0,0,1.68,23l.781-.78v8.5A3.942,3.942,0,0,0,6.4,34.66H9.942a.984.984,0,0,0,.984-.984V25.653h3.445v8.023a.984.984,0,0,0,.984.984H18.8a3.942,3.942,0,0,0,3.938-3.938.984.984,0,0,0-1.969,0A1.971,1.971,0,0,1,18.8,32.691H16.341V24.668a.984.984,0,0,0-.984-.984H9.942a.984.984,0,0,0-.984.984v8.023H6.4A1.971,1.971,0,0,1,4.43,30.722V20.288q0-.015,0-.029L12.007,12.7a.984.984,0,0,1,1.277,0l7.487,7.536V24.8a.984.984,0,0,0,1.969,0V22.216l.778.783a.984.984,0,1,0,1.4-1.388Z" transform="translate(0 -10.492)"/></g></g></g></svg>